<svg width="827" height="562" viewBox="0 0 827 562" fill="none" xmlns="http://www.w3.org/2000/svg">
<path d="M76.3506 76.4036H736.561C786.17 76.4036 826.386 116.619 826.386 166.228V444.684C826.386 509.176 774.105 561.456 709.614 561.456H166.175C116.566 561.456 76.3506 521.24 76.3506 471.632V76.4036Z" fill="#FF7773"/>
<path fill-rule="evenodd" clip-rule="evenodd" d="M736.561 103.351H103.298V471.632C103.298 506.358 131.449 534.509 166.175 534.509H709.614C759.223 534.509 799.438 494.293 799.438 444.684V166.228C799.438 131.502 771.287 103.351 736.561 103.351ZM76.3506 76.4036V471.632C76.3506 521.24 116.566 561.456 166.175 561.456H709.614C774.105 561.456 826.386 509.176 826.386 444.684V166.228C826.386 116.619 786.17 76.4036 736.561 76.4036H76.3506Z" fill="black"/>
<path d="M0 0.0526123H660.211C709.819 0.0526123 750.035 40.2684 750.035 89.8772V395.281C750.035 444.889 709.819 485.105 660.211 485.105H89.8245C40.2158 485.105 0 444.889 0 395.281V0.0526123Z" fill="white"/>
<path fill-rule="evenodd" clip-rule="evenodd" d="M660.211 27H26.9474V395.281C26.9474 430.007 55.0984 458.158 89.8245 458.158H660.211C694.937 458.158 723.088 430.007 723.088 395.281V89.8772C723.088 55.1511 694.937 27 660.211 27ZM0 0.0526123V395.281C0 444.889 40.2158 485.105 89.8245 485.105H660.211C709.819 485.105 750.035 444.889 750.035 395.281V89.8772C750.035 40.2684 709.819 0.0526123 660.211 0.0526123H0Z" fill="black"/>
<path fill-rule="evenodd" clip-rule="evenodd" d="M624.281 170.719C649.085 170.719 669.193 150.611 669.193 125.807C669.193 101.003 649.085 80.8948 624.281 80.8948C599.476 80.8948 579.368 101.003 579.368 125.807C579.368 150.611 599.476 170.719 624.281 170.719ZM624.281 197.667C663.968 197.667 696.14 165.494 696.14 125.807C696.14 86.1201 663.968 53.9474 624.281 53.9474C584.594 53.9474 552.421 86.1201 552.421 125.807C552.421 165.494 584.594 197.667 624.281 197.667Z" fill="black"/>
</svg>
