<svg width="147" height="55" viewBox="0 0 147 55" fill="none" xmlns="http://www.w3.org/2000/svg">
<path d="M18.6947 54.4283C18.2387 54.817 18.0107 54.817 17.8587 54.817L1.51989 52.7957C1.29191 52.7957 1.06392 52.5624 1.06392 52.3292L0 38.0244C0 37.7134 0.227984 37.4802 0.531962 37.4802L4.40769 37.0914L10.7912 37.4024C11.0952 37.4024 11.3232 37.6357 11.3232 37.9466L11.0192 44.3994C11.0192 44.7103 11.3232 45.0213 11.6272 45.0213L17.2508 44.3994C17.4788 44.3994 17.6307 44.2439 17.7067 44.0106L19.6826 38.0244C19.7586 37.7134 19.6066 37.4024 19.3786 37.2469L10.0313 32.971L0.835941 28.0732C0.683951 27.9954 0.607957 27.8399 0.607957 27.6067L0.303978 15.4009L1.74788 3.5839C1.74788 3.35067 1.89986 3.11744 2.12785 3.0397L12.8431 1.09611L23.8623 0.551899C24.0903 0.551899 24.3183 0.707385 24.3943 0.940618L27.662 8.17078C27.662 8.24853 27.662 8.32627 27.662 8.40402L28.346 18.433C28.346 18.7439 28.118 19.0549 27.814 19.0549L21.9624 19.1326H19.5306C19.2266 19.1326 18.9986 18.8994 18.9227 18.6662L17.7067 11.436C17.6307 11.125 17.3268 10.8918 17.0228 10.9696L10.4113 11.9802C10.1073 12.058 9.8793 12.2912 9.8793 12.6022L10.1833 21.5427C10.1833 21.7759 10.3353 22.0092 10.5633 22.0869L27.2061 29.2393C27.4341 29.3171 27.586 29.4726 27.586 29.7058L28.194 47.0426C28.194 47.1981 28.118 47.3536 27.966 47.4314L18.6947 54.4283Z" fill="#181818"/>
<path d="M69.8456 3.27293L69.9216 4.67232C69.9976 6.7714 70.2255 13.3796 69.9216 18.5884C69.5416 24.1082 69.0096 48.6753 68.9336 52.5624C68.9336 52.8734 68.7057 53.1067 68.4017 53.1067C64.6019 53.2621 59.8903 53.1844 58.4464 53.1844C58.2184 53.1844 57.9904 53.0289 57.9144 52.7957C57.6864 51.8628 57.0785 49.2972 56.3185 46.6539C55.6346 44.0884 53.4307 38.4131 52.4428 35.9253C52.2908 35.4588 51.6069 35.4588 51.4549 35.9253C48.8711 42.5335 45.9833 52.407 45.3753 54.506C45.2993 54.7393 45.0713 54.8948 44.8433 54.8948C41.3476 54.817 33.9001 54.0396 31.9243 53.8063C31.6203 53.8063 31.3923 53.5731 31.3923 53.2621C31.5443 49.5304 32.3042 26.6738 32.3042 23.4086C32.3042 20.2211 31.5443 5.06104 31.3923 1.71805C31.3923 1.40708 31.6963 1.09611 32.0003 1.09611L41.8796 1.95129C42.1835 1.95129 42.4115 2.18452 42.4115 2.49549C42.4875 4.59457 42.7155 12.7577 42.5635 15.8674C42.4875 17.811 42.4115 23.2531 42.4115 27.8399C42.4115 28.5396 43.3994 28.6174 43.4754 27.9177C44.6154 20.6098 46.2113 10.8918 46.5912 8.63725C46.6672 8.32627 46.8952 8.09304 47.1992 8.09304C49.251 8.17078 52.8988 8.79273 54.0387 8.94822C54.2667 8.94822 54.4187 9.10371 54.4947 9.33694C54.7226 10.0366 55.1786 11.6693 55.1786 13.6906C55.1786 15.5564 56.4705 23.875 57.3065 28.9284C57.3825 29.5503 58.2944 29.5503 58.3704 28.9284C58.6744 25.8964 59.0543 21.9314 59.0543 19.9101C59.0543 16.8003 59.0543 5.68298 59.0543 3.0397C59.0543 2.72872 59.2823 2.49549 59.5863 2.49549H60.8782C63.31 2.49549 67.7937 2.65098 69.3136 2.72872C69.6176 2.72872 69.8456 2.96196 69.8456 3.27293Z" fill="#181818"/>
<path d="M84.9537 35.9253L85.3336 39.4238C85.5616 43.2332 86.0936 51.0076 86.2456 53.7286C86.2456 54.0396 86.0176 54.2728 85.7136 54.3506C84.6497 54.506 82.2178 54.817 80.546 54.9725C78.7981 55.128 75.0744 54.5838 73.7824 54.3506C73.4785 54.2728 73.2505 54.0396 73.2505 53.7286C73.3265 51.785 73.4785 45.7987 73.3265 44.0884C73.1745 42.067 73.6305 34.1372 73.3265 29.939C73.0985 26.2851 73.2505 17.1113 73.3265 14.8567C73.3265 14.5458 73.5545 14.3125 73.8584 14.3125C74.5424 14.3125 75.7583 14.3125 76.8982 14.3903C78.3421 14.468 83.7377 14.6235 85.4856 14.7013C85.7896 14.7013 86.0176 15.0122 86.0176 15.3232C85.7896 18.3552 84.7257 32.1159 84.9537 35.9253ZM75.3783 11.6693L74.6944 11.5915C74.3144 11.436 73.6305 10.8918 73.5545 9.25919C73.4785 7.39334 73.4025 0.940618 75.4543 0.318667C77.5822 -0.30328 81.8379 0.163181 82.4458 0.240924C82.5218 0.240924 82.5978 0.240924 82.6738 0.240924C83.1298 0.474157 85.6376 1.64031 85.7136 2.65098C85.9416 4.67232 84.7257 9.8034 84.3457 11.2805C84.2697 11.5138 84.0417 11.6693 83.8137 11.6693H75.6063C75.5303 11.6693 75.4543 11.6693 75.3783 11.6693Z" fill="#181818"/>
<path d="M116.409 28.0732L116.789 28.4619C119.297 30.872 118.917 51.2408 118.917 53.3399C118.917 53.4954 118.917 53.5731 118.841 53.6509C118.613 54.0396 117.853 54.8948 116.485 54.8948H109.721C109.417 54.8948 109.189 54.6615 109.189 54.3506C109.189 52.7957 109.265 48.3643 109.113 45.721C108.961 42.4558 108.353 34.9146 106.606 33.3597C105.77 32.6601 103.566 32.1936 101.438 31.8826C101.134 31.8049 100.83 32.0381 100.83 32.3491C101.058 40.4344 100.83 51.785 100.754 54.3506C100.754 54.6615 100.526 54.8948 100.222 54.8948H95.0544C93.1545 54.8948 90.6467 54.2728 89.6588 54.0396C89.4308 53.9618 89.2788 53.7286 89.2788 53.4954C89.2788 50.2301 89.4308 29.4726 89.8108 26.1296C90.1908 22.4756 89.8108 1.17385 89.8108 1.17385V1.09611C89.8108 1.09611 104.022 0.629642 109.873 1.40708C115.725 2.18452 117.853 6.53817 118.233 7.93755C118.613 9.49243 118.993 18.7439 116.713 21.3872C115.953 22.2424 115.269 24.1082 112.913 25.1967C112.457 25.4299 112.457 26.0518 112.913 26.2073C114.433 26.8293 115.725 27.4512 116.409 28.0732ZM106.53 21.154L106.758 20.7653C107.897 19.5991 107.29 12.1357 106.986 10.5808C106.758 9.33694 102.806 8.87047 101.286 8.71499C100.982 8.71499 100.678 8.94822 100.678 9.25919C100.678 10.8141 100.602 15.09 100.754 16.3339C100.906 17.5778 100.982 20.4543 100.982 21.6204C100.982 21.9314 101.21 22.1647 101.514 22.1647C102.73 22.1647 105.694 22.0869 106.53 21.154Z" fill="#181818"/>
<path d="M146.783 43.5442L146.859 44.1661C146.935 45.1768 147.087 46.343 146.935 47.0426C146.783 47.8201 146.783 51.6295 146.783 53.0289C146.783 53.3399 146.555 53.5731 146.251 53.5731C144.883 53.7286 140.779 54.1951 138.5 54.1951C136.068 54.1951 126.72 53.4954 124.517 53.3399C124.213 53.3399 123.985 53.1067 123.985 52.7957C123.833 49.375 122.921 29.3948 123.073 26.0518C123.225 22.7089 122.161 5.5275 121.933 2.34C121.933 2.02903 122.161 1.7958 122.465 1.7958C126.416 1.25159 132.496 2.26226 134.168 2.57324C134.396 2.65098 134.548 2.88421 134.548 3.19518V11.6693C134.548 13.5351 134.7 27.218 134.7 31.2607C134.7 34.6036 134.32 41.0564 134.168 43.0777C134.168 43.3887 134.472 43.6997 134.776 43.6997L146.251 43C146.555 43 146.783 43.2332 146.783 43.5442Z" fill="#181818"/>
</svg>
