<svg width="150" height="20" viewBox="0 0 150 20" fill="none" xmlns="http://www.w3.org/2000/svg">
<g opacity="0.3">
<path d="M4.09233 14.28C2.06233 14.28 0.886329 13.286 0.886329 11.606H2.00633C2.02033 12.614 2.80433 13.3 4.13433 13.3C5.19833 13.3 5.88433 12.852 5.88433 12.11C5.88433 11.186 4.91833 11.116 3.85433 10.976C2.53833 10.822 1.01233 10.472 1.01233 8.862C1.01233 7.49 2.16033 6.65 3.85433 6.65C5.61833 6.65 6.82233 7.588 6.82233 9.044H5.68833C5.67433 8.176 4.93233 7.63 3.84033 7.63C2.81833 7.63 2.11833 8.092 2.11833 8.82C2.11833 9.702 3.07033 9.772 4.12033 9.898C5.45033 10.066 6.97633 10.402 6.97633 12.096C6.97633 13.482 5.89833 14.28 4.09233 14.28ZM12.1272 14.28C9.91524 14.28 8.31924 12.642 8.31924 10.374C8.31924 8.218 9.88724 6.65 12.0712 6.65C14.2272 6.65 15.7812 8.218 15.7812 10.388C15.7812 10.528 15.7812 10.696 15.7672 10.85H9.50924C9.67724 12.278 10.7132 13.23 12.1552 13.23C13.2052 13.23 14.1292 12.698 14.5772 11.858L15.5432 12.348C14.9692 13.552 13.6952 14.28 12.1272 14.28ZM9.52324 9.828H14.5632C14.3532 8.554 13.3592 7.7 12.0152 7.7C10.7132 7.7 9.71924 8.554 9.52324 9.828ZM20.748 14.28C18.606 14.28 17.052 12.67 17.066 10.458C17.066 8.246 18.606 6.65 20.748 6.65C22.484 6.65 23.926 7.742 24.192 9.254L23.058 9.408C22.806 8.386 21.84 7.7 20.762 7.7C19.32 7.7 18.214 8.834 18.228 10.458C18.228 12.096 19.306 13.23 20.748 13.23C21.854 13.23 22.792 12.544 23.072 11.55L24.22 11.704C23.898 13.202 22.442 14.28 20.748 14.28ZM31.0142 6.93H32.1762V14H31.0142V13.034H30.8742C30.3842 13.804 29.5862 14.252 28.6622 14.252C26.8562 14.252 25.7222 12.95 25.7222 11.144V6.93H26.8842V11.144C26.8842 12.348 27.5842 13.202 28.8022 13.202C29.9922 13.202 31.0142 12.292 31.0142 11.046V6.93ZM35.3608 14H34.1988V6.93H35.3328V7.882H35.4588C35.7808 7.238 36.5648 6.79 37.3488 6.79C37.6708 6.79 38.0068 6.86 38.2168 6.972V8.05C37.8528 7.896 37.4328 7.84 37.1668 7.84C36.1028 7.84 35.3608 8.792 35.3608 10.192V14ZM42.7391 14.28C40.5271 14.28 38.9311 12.642 38.9311 10.374C38.9311 8.218 40.4991 6.65 42.6831 6.65C44.8391 6.65 46.3931 8.218 46.3931 10.388C46.3931 10.528 46.3931 10.696 46.3791 10.85H40.1211C40.2891 12.278 41.3251 13.23 42.7671 13.23C43.8171 13.23 44.7411 12.698 45.1891 11.858L46.1551 12.348C45.5811 13.552 44.3071 14.28 42.7391 14.28ZM40.1351 9.828H45.1751C44.9651 8.554 43.9711 7.7 42.6271 7.7C41.3251 7.7 40.3311 8.554 40.1351 9.828ZM51.3458 14.28C49.2738 14.28 47.6778 12.67 47.6778 10.458C47.6778 8.246 49.2598 6.65 51.3318 6.65C52.4658 6.65 53.4038 7.126 53.9218 7.98H54.0618V3.71H55.2238V14H54.0618V12.908H53.9218C53.4038 13.776 52.4938 14.28 51.3458 14.28ZM51.4718 13.23C52.9838 13.23 54.0898 12.012 54.0898 10.458C54.0898 8.904 52.9838 7.7 51.4718 7.7C49.9458 7.7 48.8398 8.904 48.8398 10.458C48.8398 12.04 49.9598 13.23 51.4718 13.23ZM64.464 14.28C63.302 14.28 62.392 13.776 61.874 12.908H61.748V14H60.586V3.71H61.748V7.98H61.874C62.392 7.126 63.344 6.65 64.478 6.65C66.536 6.65 68.118 8.246 68.118 10.458C68.118 12.67 66.522 14.28 64.464 14.28ZM64.338 13.23C65.85 13.23 66.956 12.04 66.956 10.458C66.956 8.904 65.85 7.7 64.338 7.7C62.812 7.7 61.706 8.904 61.706 10.458C61.706 12.012 62.812 13.23 64.338 13.23ZM70.1965 17.136C69.8465 17.136 69.3985 17.052 69.0765 16.912V15.89C69.3985 16.016 69.7485 16.1 70.0145 16.1C71.0645 16.1 71.3445 14.98 71.7645 13.986L68.6145 6.93H69.8325L72.2545 12.46H72.3945L74.4665 6.93H75.7125L72.9125 14.112C72.2825 15.68 71.7225 17.136 70.1965 17.136Z" fill="#181818"/>
<path d="M93.479 4.5V15.5H91.3019V10.9271H84.177V15.5H82V4.5H84.177V8.97857H91.3019V4.5H93.479Z" fill="#181818"/>
<path d="M97.4717 11.32L94.1402 4.5H96.5482L98.9726 9.34H99.8302L102.139 4.5H104.547L101.331 11.32H100.49V15.5H98.3129V11.32H97.4717Z" fill="#181818"/>
<path d="M107.378 15.5H105.201V4.5H111.996C112.59 4.5 113.129 4.58905 113.613 4.76714C114.096 4.94524 114.509 5.19667 114.85 5.52143C115.19 5.83571 115.454 6.2181 115.641 6.66857C115.828 7.11905 115.922 7.6219 115.922 8.17714C115.922 8.76381 115.801 9.2719 115.559 9.70143C115.317 10.131 114.993 10.4871 114.586 10.77C114.19 11.0424 113.734 11.2467 113.217 11.3829C112.7 11.519 112.167 11.5871 111.617 11.5871H107.378V15.5ZM107.378 9.73286H111.633C112.271 9.73286 112.76 9.60714 113.101 9.35571C113.453 9.10429 113.629 8.71143 113.629 8.17714C113.629 7.5381 113.442 7.07714 113.068 6.79429C112.706 6.50095 112.2 6.35429 111.551 6.35429H107.378V9.73286Z" fill="#181818"/>
<path d="M128.063 4.5V15.5H125.886V10.9271H118.762V15.5H116.585V4.5H118.762V8.97857H125.886V4.5H128.063Z" fill="#181818"/>
<path d="M138.225 4.5V6.43286H130.902V9.02571H138.225V10.8486H130.902V13.5671H138.225V15.5H128.725V4.5H138.225Z" fill="#181818"/>
<path d="M150 4.5V15.5H145.662L141.028 4.5H143.205L147.856 15.5V4.5H150ZM138.884 15.5V4.5H141.028V15.5H138.884Z" fill="#181818"/>
</g>
</svg>
